<svg xmlns="http://www.w3.org/2000/svg" width="236.608" height="65.859" viewBox="0 0 236.608 65.859"><g transform="translate(-71.423 -113.158)"><g transform="translate(71.423 113.158)"><g transform="translate(4.355)"><g transform="translate(0 0)"><path d="M4225.707,247.761c-3.279,1.3-6.8,10.046-7.014,26.227l8.615-11.929V247.4A6.222,6.222,0,0,0,4225.707,247.761Z" transform="translate(-4194.351 -208.129)" fill="#ff5c00"/><path d="M4218.282,158.389c-4.2,13.289-17.733,15.505-17.879,15.528l-.167.013-7.493,0V171.71h0v-12.4h7.3a7.044,7.044,0,0,1,7.3,6.756,1.6,1.6,0,0,1-.007.187,6.346,6.346,0,0,1-1,3.233,19.88,19.88,0,0,0,10.353-13.743,20.487,20.487,0,0,0-16.645-8.216h-43.256l23.22,10.112V199.82c1.554-9.118,4.5-13.614,7.317-14.728a8.721,8.721,0,0,1,2.42-.523v.035h10.3a20.845,20.845,0,0,0,13.787-5.086,17.866,17.866,0,0,0,6.246-13.265c0-.064,0-.124,0-.187A17.3,17.3,0,0,0,4218.282,158.389Z" transform="translate(-4156.789 -147.527)" fill="#ff5c00"/></g><g transform="translate(63.424 14.481)"><path d="M4333.467,184.354h-8.137l-7.248,20.328h7.84l.63-2.55h5.514l.652,2.55h7.856Zm-5.692,12.947.623-2.313c.289-1.052.5-1.956.624-2.7a11.641,11.641,0,0,0,.192-1.764h.156a13.7,13.7,0,0,0,.192,1.764c.1.615.312,1.512.629,2.7l.623,2.313Z" transform="translate(-4318.082 -184.354)" fill="#ff5c00"/><g transform="translate(23.633)"><path d="M4385.49,198.086V184.354h-7.307v20.328H4392.6v-6.6Z" transform="translate(-4378.183 -184.354)" fill="#ff5c00"/></g><g transform="translate(39.07)"><path d="M4432.825,184.354h-8.136l-6.789,19.038-.458,1.29h7.839l.631-2.55h5.506l.652,2.55h7.863Zm-5.7,12.947.63-2.313c.282-1.052.5-1.956.623-2.7a11.457,11.457,0,0,0,.192-1.764h.156a12.8,12.8,0,0,0,.193,1.764c.1.615.31,1.512.622,2.7l.63,2.313Z" transform="translate(-4417.441 -184.354)" fill="#ff5c00"/></g><g transform="translate(62.688)"><path d="M4495.535,189.3a10.358,10.358,0,0,0-4.062-3.668,10.7,10.7,0,0,0-3.253-.971c-.755-.111-1.511-.193-2.267-.237s-1.6-.074-2.535-.074H4477.5v20.328h5.373a35.319,35.319,0,0,0,5.314-.319,10.055,10.055,0,0,0,3.282-.956,10.465,10.465,0,0,0,4.062-3.668,9.722,9.722,0,0,0,1.393-5.2A9.919,9.919,0,0,0,4495.535,189.3Zm-7.159,8.219a6.073,6.073,0,0,1-3.624.971v-7.878h.318a5,5,0,0,1,3.357.971,3.844,3.844,0,0,1,1.075,2.957A3.7,3.7,0,0,1,4488.376,197.523Z" transform="translate(-4477.504 -184.354)" fill="#ff5c00"/></g><g transform="translate(85.321)"><path d="M4535.061,184.354v20.328h7.426V184.354Z" transform="translate(-4535.061 -184.354)" fill="#ff5c00"/></g><g transform="translate(96.452)"><path d="M4574.751,184.354v11.079a5.254,5.254,0,0,1-.49,2.653,1.673,1.673,0,0,1-1.555.741,1.7,1.7,0,0,1-1.571-.741,5.264,5.264,0,0,1-.459-2.653V184.354h-7.307v11.027a18.217,18.217,0,0,0,.282,3.579,7.128,7.128,0,0,0,.889,2.335,7.846,7.846,0,0,0,3.321,2.905,11.978,11.978,0,0,0,9.686,0,7.887,7.887,0,0,0,3.319-2.905,6.567,6.567,0,0,0,.919-2.357,18.182,18.182,0,0,0,.274-3.557V184.354Z" transform="translate(-4563.369 -184.354)" fill="#ff5c00"/></g><g transform="translate(117.113)"><path d="M4640.256,184.354h-7.531l-1.511,4.943c-.415,1.342-.712,2.438-.89,3.283a27.78,27.78,0,0,0-.5,2.749h-.127a33.6,33.6,0,0,0-1.126-5.239c-.119-.378-.192-.615-.207-.7l-1.445-5.032h-7.537l-3.476,20.328h7.167l.89-8.048c.073-.837.125-1.452.162-1.852.022-.356.067-.986.142-1.867.059.415.17,1.03.348,1.845a19.466,19.466,0,0,0,.571,2.112l2.326,7.811h4.351l2.334-7.811c.268-.9.46-1.608.571-2.112.125-.622.244-1.237.341-1.845.021.452.066,1.067.141,1.845.029.3.06.615.082.926s.059.63.088.948l.89,8.048h7.159Z" transform="translate(-4615.911 -184.354)" fill="#ff5c00"/></g></g><path d="M4240.6,241.816" transform="translate(-4207.645 -204.74)" fill="#ff5c00"/><path d="M4180.009,157.639l-9.4-10.112h-13.821Z" transform="translate(-4156.789 -147.527)" fill="#ff5c00"/><path d="M4685.915,184.521H4683.5l.351,2.223h19.561l-14.439,15h-2.749l.428,2.707h2.8l3.2-3.324,15.985-16.6Z" transform="translate(-4476.39 -169.974)" fill="#ff5c00"/><path d="M4226.567,247.512l-7.827,24.381c-.021.685-.04,1.381-.048,2.1l8.615-11.929V247.4C4227.054,247.429,4226.8,247.463,4226.567,247.512Z" transform="translate(-4194.351 -208.129)" fill="#ff5c00"/></g><path d="M4155.677,203.067v2.117h-7.6v-7.6h7.6V199.7h15.341v-2.223h-12.982v-2.253h-12.322v12.321h12.322V205.29h12.98v-2.223h-15.339Z" transform="translate(-4145.714 -176.468)" fill="#ff5c00"/></g></g></svg>